<svg width="46" height="46" viewBox="0 0 46 46" fill="none" xmlns="http://www.w3.org/2000/svg">
<g filter="url(#filter0_d_1460_1592)">
<rect x="4" width="38" height="38" rx="8" fill="#252836" shape-rendering="crispEdges"/>
<path d="M25.9857 9C29.0482 9 31 10.435 31 13.2577V27.3309C31 27.7736 30.8285 28.1982 30.5232 28.5112C30.2179 28.8242 29.8038 29 29.3608 29C29.0965 28.9957 28.8368 28.9291 28.5863 28.7971L22.974 25.6635L17.3844 28.8037C16.7112 29.1624 15.8954 28.9969 15.3843 28.3975L15.2863 28.2719L15.1926 28.1174C15.0704 27.8782 15.0045 27.613 15 27.3309V13.4343C15 10.4993 16.9091 9 20.0143 9H25.9857ZM25.9857 10.4477H20.0143C17.6193 10.4477 16.412 11.3958 16.412 13.4343L16.412 27.3189C16.4127 27.3631 16.4235 27.4065 16.4117 27.3897L16.4492 27.4519C16.5137 27.5421 16.6349 27.5715 16.7196 27.5265L22.3068 24.3883C22.7233 24.1576 23.225 24.1576 23.6435 24.3894L29.2463 27.5173C29.2887 27.5397 29.3355 27.5517 29.372 27.5523C29.4293 27.5523 29.4842 27.529 29.5247 27.4875C29.5652 27.446 29.5879 27.3897 29.5879 27.3309V13.2577C29.5879 11.3579 28.35 10.4477 25.9857 10.4477ZM26.4079 15.3166C26.7978 15.3166 27.1139 15.6407 27.1139 16.0405C27.1139 16.407 26.8483 16.7098 26.5037 16.7578L26.4079 16.7644H19.5404C19.1505 16.7644 18.8344 16.4403 18.8344 16.0405C18.8344 15.674 19.1 15.3712 19.4446 15.3232L19.5404 15.3166H26.4079Z" fill="#FFB572"/>
</g>
<defs>
<filter id="filter0_d_1460_1592" x="0" y="0" width="46" height="46" filterUnits="userSpaceOnUse" color-interpolation-filters="sRGB">
<feFlood flood-opacity="0" result="BackgroundImageFix"/>
<feColorMatrix in="SourceAlpha" type="matrix" values="0 0 0 0 0 0 0 0 0 0 0 0 0 0 0 0 0 0 127 0" result="hardAlpha"/>
<feOffset dy="4"/>
<feGaussianBlur stdDeviation="2"/>
<feComposite in2="hardAlpha" operator="out"/>
<feColorMatrix type="matrix" values="0 0 0 0 0 0 0 0 0 0 0 0 0 0 0 0 0 0 0.25 0"/>
<feBlend mode="normal" in2="BackgroundImageFix" result="effect1_dropShadow_1460_1592"/>
<feBlend mode="normal" in="SourceGraphic" in2="effect1_dropShadow_1460_1592" result="shape"/>
</filter>
</defs>
</svg>
