<svg width="56" height="56" viewBox="0 0 56 56" fill="none" xmlns="http://www.w3.org/2000/svg">
<rect opacity="0.26" width="56" height="56" rx="12" fill="#EB966A"/>
<path d="M39.6666 11.3333H16.3333C13.5766 11.3333 11.3333 13.5766 11.3333 16.3333V21.0516C11.3333 22.8066 11.9699 24.4016 12.9999 25.6283V41.3333C12.9999 41.7753 13.1755 42.1993 13.4881 42.5118C13.8006 42.8244 14.2246 43 14.6666 43H27.9999C28.4419 43 28.8659 42.8244 29.1784 42.5118C29.491 42.1993 29.6666 41.7753 29.6666 41.3333V33H36.3333V41.3333C36.3333 41.7753 36.5088 42.1993 36.8214 42.5118C37.134 42.8244 37.5579 43 37.9999 43H41.3333C41.7753 43 42.1992 42.8244 42.5118 42.5118C42.8243 42.1993 42.9999 41.7753 42.9999 41.3333V25.6266C44.0299 24.4016 44.6666 22.8066 44.6666 21.05V16.3333C44.6666 13.5766 42.4233 11.3333 39.6666 11.3333ZM41.3333 16.3333V21.0516C41.3333 22.9516 39.9183 24.5716 38.1816 24.6633L37.9999 24.6666C36.1616 24.6666 34.6666 23.1716 34.6666 21.3333V14.6666H39.6666C40.5866 14.6666 41.3333 15.415 41.3333 16.3333ZM24.6666 21.3333V14.6666H31.3333V21.3333C31.3333 23.1716 29.8383 24.6666 27.9999 24.6666C26.1616 24.6666 24.6666 23.1716 24.6666 21.3333ZM14.6666 16.3333C14.6666 15.415 15.4133 14.6666 16.3333 14.6666H21.3333V21.3333C21.3333 23.1716 19.8383 24.6666 17.9999 24.6666L17.8183 24.6616C16.0816 24.5716 14.6666 22.9516 14.6666 21.0516V16.3333ZM24.6666 34.6666H17.9999V29.6666H24.6666V34.6666Z" fill="url(#paint0_linear_1454_5987)"/>
<defs>
<linearGradient id="paint0_linear_1454_5987" x1="27.9999" y1="11.3333" x2="27.9999" y2="43" gradientUnits="userSpaceOnUse">
<stop stop-color="#EA9769"/>
<stop offset="1" stop-color="#EA6969"/>
</linearGradient>
</defs>
</svg>
